<?xml version="1.0" standalone="no"?>
<!DOCTYPE svg PUBLIC "-//W3C//DTD SVG 20010904//EN"
 "http://www.w3.org/TR/2001/REC-SVG-20010904/DTD/svg10.dtd">
<svg version="1.0" xmlns="http://www.w3.org/2000/svg"
 width="2048.000000pt" height="1922.000000pt" viewBox="0 0 2048.000000 1922.000000"
 preserveAspectRatio="xMidYMid meet">

<g transform="translate(0.000000,1922.000000) scale(0.100000,-0.100000)"
fill="#000000" stroke="none">
<path d="M7889 17663 c83 -169 150 -374 194 -588 19 -97 22 -140 22 -375 0
-231 -3 -280 -22 -380 -74 -387 -229 -715 -482 -1019 -279 -337 -685 -591
-1117 -700 -200 -51 -317 -65 -539 -64 -214 0 -322 12 -517 59 l-109 26 -97
-31 c-103 -33 -213 -55 -326 -67 l-68 -7 28 -23 c16 -14 81 -59 144 -102 737
-498 1702 -503 2450 -11 1065 699 1320 2154 555 3168 -41 53 -90 114 -110 136
l-36 40 30 -62z"/>
<path d="M16071 17436 c137 -294 201 -587 202 -921 0 -345 -70 -651 -218 -950
-455 -921 -1480 -1397 -2474 -1149 l-103 26 -57 -21 c-93 -34 -218 -62 -328
-75 l-104 -11 68 -52 c301 -227 636 -367 1028 -429 152 -25 467 -25 625 0 250
39 475 112 698 225 223 114 397 246 588 444 312 324 503 704 585 1167 30 167
33 506 6 678 -60 378 -199 708 -427 1007 -38 50 -85 108 -104 130 l-36 40 51
-109z"/>
<path d="M13820 16984 c0 -11 -8 -38 -19 -60 -10 -21 -37 -94 -61 -161 l-43
-123 -91 -1 c-50 -1 -136 -4 -191 -8 l-100 -6 148 -114 c81 -62 147 -119 147
-126 0 -17 -87 -332 -95 -345 -13 -20 10 -8 104 57 53 36 121 84 153 105 l56
40 151 -106 c139 -97 182 -122 166 -97 -3 6 -28 88 -56 183 -42 144 -48 174
-36 183 168 124 284 220 270 223 -10 1 -97 6 -193 10 l-175 7 -60 172 c-60
171 -75 204 -75 167z m-93 -480 c-3 -3 -12 -4 -19 -1 -8 3 -5 6 6 6 11 1 17
-2 13 -5z m93 -20 c0 -11 -7 -13 -27 -8 -44 10 -63 25 -24 17 24 -4 32 -3 27
5 -5 8 -2 10 8 6 9 -3 16 -12 16 -20z m44 14 c-5 -8 0 -9 17 -4 60 16 69 15
20 -4 -58 -21 -72 -20 -51 5 15 18 24 20 14 3z m-84 -93 c-17 -25 -33 -45 -36
-45 -3 0 6 17 20 37 14 20 23 40 20 45 -3 4 2 8 11 8 12 0 9 -10 -15 -45z
m114 -37 c16 -21 26 -38 23 -38 -7 0 -87 105 -87 115 0 8 8 -2 64 -77z"/>
<path d="M6274 16687 c-6 -18 -34 -98 -63 -178 l-53 -147 -194 -7 -194 -7 150
-116 c83 -63 150 -121 150 -129 0 -7 -16 -70 -36 -141 -20 -70 -37 -136 -38
-147 -1 -11 -8 -30 -14 -42 -7 -12 -12 -24 -12 -27 0 -3 72 44 159 105 l159
109 151 -105 c137 -95 183 -122 166 -96 -3 6 -28 88 -56 183 -45 152 -49 173
-35 184 9 6 77 58 151 115 l136 104 -98 6 c-54 4 -140 7 -191 8 -86 1 -93 3
-102 24 -5 12 -33 90 -61 172 -29 83 -55 153 -58 157 -4 4 -11 -7 -17 -25z
m61 -453 c-17 -26 -17 -27 6 -20 62 16 69 15 20 -4 -30 -11 -56 -18 -59 -16
-4 5 39 66 46 66 2 0 -3 -12 -13 -26z m-101 -21 c21 -4 27 -3 22 5 -5 8 -2 10
8 6 19 -7 21 -34 4 -33 -7 0 -35 9 -63 20 -27 11 -39 17 -25 14 14 -3 38 -8
54 -12z m27 -60 c-6 -10 -22 -31 -36 -48 l-26 -30 25 39 c14 22 23 43 20 48
-3 4 2 8 11 8 12 0 13 -4 6 -17z m93 -68 c16 -22 19 -29 6 -15 -12 14 -33 37
-46 52 -13 15 -24 33 -24 39 0 12 16 -7 64 -76z"/>
<path d="M14917 15908 c-24 -68 -53 -147 -63 -175 l-19 -53 -55 -1 c-30 -1
-118 -4 -194 -8 l-139 -6 143 -110 c79 -60 148 -113 153 -117 7 -4 -4 -58 -31
-155 -23 -81 -42 -155 -42 -163 0 -9 -7 -26 -16 -38 -8 -12 -12 -22 -8 -22 3
0 72 46 153 101 80 56 153 103 161 105 8 2 83 -43 165 -101 83 -57 153 -105
156 -105 4 0 -18 80 -47 178 -30 97 -54 182 -53 187 0 6 68 62 151 125 l151
115 -119 6 c-65 4 -153 7 -194 8 l-75 1 -59 168 c-33 92 -62 171 -66 175 -4 5
-28 -47 -53 -115z m39 -396 c-3 -3 -33 3 -66 13 -33 10 -58 20 -56 23 3 2 26
-3 52 -12 58 -20 58 -20 50 0 -3 8 -2 12 4 9 6 -3 11 2 11 12 1 10 4 5 6 -10
3 -16 2 -31 -1 -35z m106 21 c-76 -26 -99 -25 -67 5 10 9 15 11 11 5 -9 -17
18 -16 64 2 19 7 42 13 50 13 8 0 -18 -11 -58 -25z m-142 -88 c-17 -25 -33
-45 -36 -45 -3 0 6 17 20 37 14 20 23 40 20 45 -3 4 2 8 11 8 12 0 9 -10 -15
-45z m120 -52 c17 -24 29 -43 27 -43 -6 0 -97 119 -97 128 0 7 21 -17 70 -85z"/>
<path d="M4190 15386 c113 -272 256 -489 458 -698 l108 -110 94 26 c80 22 248
81 258 90 1 2 -53 30 -120 64 -291 143 -578 379 -762 627 -33 44 -63 85 -68
90 -5 6 10 -35 32 -89z"/>
<path d="M12320 15289 c0 -11 45 -120 83 -202 95 -201 241 -411 406 -580 123
-126 99 -121 293 -57 193 64 191 55 36 132 -151 76 -263 148 -394 254 -114 92
-280 263 -361 373 -35 46 -63 82 -63 80z"/>
<path d="M3414 11497 c-6 -18 -34 -98 -63 -178 l-53 -146 -157 -7 c-86 -4
-172 -7 -191 -7 -43 2 -48 7 128 -128 72 -56 132 -108 132 -116 0 -17 -87
-332 -95 -345 -13 -21 11 -7 148 88 78 54 148 102 154 106 8 4 70 -32 157 -94
80 -55 151 -103 159 -106 11 -4 -1 46 -39 173 -30 98 -54 181 -54 184 0 3 67
57 150 120 82 62 147 116 144 118 -3 3 -89 8 -191 11 l-186 5 -61 172 c-33 94
-63 174 -66 177 -3 3 -10 -10 -16 -27z m101 -472 c-76 -25 -89 -24 -60 3 10 9
15 11 11 4 -8 -13 23 -9 69 9 11 4 27 8 35 7 8 0 -16 -10 -55 -23z m-136 -2
c17 -4 22 -2 17 5 -5 8 -2 10 8 6 9 -3 16 -13 16 -21 0 -15 -11 -13 -80 14
-33 13 -17 11 39 -4z m1 -87 c-42 -61 -47 -59 -8 4 17 28 33 48 36 46 2 -3
-10 -25 -28 -50z m109 -28 c23 -32 40 -58 37 -58 -7 0 -96 117 -96 126 0 11 9
0 59 -68z"/>
<path d="M10982 11420 c-12 -33 -89 -243 -108 -297 l-16 -43 -96 -1 c-53 -1
-139 -4 -191 -8 l-94 -6 143 -110 c79 -60 147 -112 151 -115 4 -3 -10 -68 -31
-145 -22 -77 -41 -152 -44 -168 -2 -15 -10 -35 -18 -44 -24 -30 11 -10 165 96
l147 102 146 -101 c155 -108 177 -121 170 -99 -17 48 -106 353 -104 354 2 1
70 53 153 116 176 134 181 126 -71 128 l-161 1 -65 183 c-58 159 -67 179 -76
157z m51 -477 c-5 -13 -2 -15 11 -10 10 4 30 9 44 12 15 3 3 -4 -27 -15 -30
-11 -56 -19 -57 -17 -4 4 25 47 31 47 3 0 1 -8 -2 -17z m-80 -6 c17 0 27 -5
27 -14 0 -15 -12 -13 -80 14 -30 11 -31 12 -5 6 17 -4 42 -7 58 -6z m-3 -82
c-17 -25 -33 -45 -36 -45 -3 0 4 13 15 29 12 16 21 34 21 39 0 9 11 17 28 21
2 1 -11 -19 -28 -44z m104 -42 c21 -29 36 -53 33 -53 -6 0 -97 119 -97 127 0
10 21 -14 64 -74z"/>
<path d="M9506 11172 c1 -142 2 -262 3 -268 0 -6 26 -45 56 -88 30 -42 53 -76
51 -76 -3 0 -26 27 -52 60 -25 33 -50 57 -55 55 -4 -3 -9 5 -11 17 -2 18 -18
2 -81 -85 -43 -59 -80 -107 -83 -107 -3 0 25 43 62 96 48 69 63 98 55 104 -9
5 -3 10 16 15 26 7 22 10 -45 31 l-73 23 -36 -40 c-23 -26 -42 -38 -52 -34 -9
3 -3 -6 12 -19 l29 -23 -30 -99 c-40 -132 -44 -152 -32 -159 6 -4 -3 -25 -21
-51 -17 -25 -29 -47 -27 -50 3 -2 73 44 157 102 84 58 156 104 160 102 3 -2
73 -50 154 -107 82 -57 150 -101 153 -99 2 3 -18 80 -46 172 -27 92 -50 173
-50 181 0 8 66 65 148 127 l147 113 -85 7 c-47 3 -133 6 -191 7 -92 1 -108 3
-114 19 -3 9 -31 87 -62 172 -30 85 -55 156 -56 157 -1 1 -1 -114 -1 -255z
m53 -209 c-17 -28 -19 -35 -7 -31 39 16 160 49 164 46 2 -2 -42 -19 -97 -37
-55 -18 -102 -31 -105 -29 -4 5 55 88 63 88 2 0 -6 -17 -18 -37z"/>
<path d="M5100 11296 c0 -2 22 -50 49 -107 81 -171 139 -357 177 -564 25 -139
30 -470 10 -625 -61 -463 -257 -876 -575 -1212 -139 -147 -393 -351 -412 -331
-13 14 -48 147 -41 153 57 39 292 224 292 230 0 4 -84 8 -187 9 -104 1 -191 5
-194 9 -3 4 -33 85 -65 179 -32 95 -61 173 -64 173 -3 0 -34 -81 -70 -180
l-65 -180 -101 0 c-55 0 -142 -3 -192 -6 l-91 -7 142 -109 c78 -60 146 -114
150 -121 5 -7 -8 -72 -32 -159 -23 -80 -40 -150 -39 -155 1 -4 -4 -19 -11 -31
-7 -13 -11 -25 -9 -27 2 -2 73 45 158 105 173 121 158 117 240 50 l34 -28 -79
-40 c-164 -81 -359 -144 -580 -184 -102 -19 -156 -22 -360 -22 -254 0 -315 7
-530 59 l-100 25 -54 -21 c-88 -33 -248 -68 -345 -75 l-90 -7 39 -34 c64 -55
226 -159 347 -222 251 -132 486 -203 778 -236 254 -30 515 -12 770 50 391 96
718 279 1013 565 196 189 326 368 447 612 318 643 299 1416 -50 2040 -77 137
-171 270 -277 391 -18 20 -33 35 -33 33z m-965 -2572 c-17 -26 -17 -27 6 -20
60 15 69 14 19 -3 -30 -10 -57 -17 -58 -16 -4 4 40 65 46 65 2 0 -3 -12 -13
-26z m-55 -30 c0 -17 -5 -17 -50 2 l-35 14 34 -6 c23 -4 31 -3 27 5 -5 7 -1 9
8 5 9 -3 16 -12 16 -20z m-19 -51 c-6 -10 -22 -31 -36 -48 -25 -30 -25 -30 2
17 16 26 32 48 36 48 4 0 3 -8 -2 -17z m93 -65 c16 -21 26 -38 23 -38 -6 0
-87 107 -87 116 0 7 9 -4 64 -78z"/>
<path d="M11915 11158 c101 -211 171 -468 196 -723 16 -166 4 -441 -27 -582
-4 -22 -8 -23 -127 -23 l-122 0 -64 180 c-35 100 -66 179 -68 176 -3 -3 -34
-83 -68 -178 l-63 -173 -192 -10 -192 -10 142 -110 c79 -60 147 -112 151 -116
5 -3 -9 -70 -31 -149 -22 -80 -38 -149 -36 -155 2 -5 -5 -25 -16 -42 -11 -18
-17 -33 -15 -33 3 0 73 47 157 105 83 58 155 107 159 108 4 1 52 -29 105 -66
l97 -68 -37 -67 c-94 -171 -224 -349 -356 -488 l-71 -74 -158 0 c-141 0 -159
2 -168 18 -5 9 -35 91 -66 180 -47 134 -60 160 -68 146 -6 -11 -36 -91 -68
-179 l-57 -160 -183 -6 c-101 -4 -187 -5 -191 -2 -5 2 -8 0 -8 -5 0 -7 225
-186 292 -232 10 -7 -49 -202 -64 -211 -22 -14 -223 -69 -320 -89 -141 -28
-296 -42 -442 -38 l-129 3 -48 160 c-27 88 -49 162 -49 165 0 3 68 57 150 120
83 63 150 118 150 121 0 4 -84 7 -187 8 -104 1 -191 5 -195 9 -3 4 -31 79 -62
167 -31 88 -59 167 -62 175 -7 17 -5 20 -83 -194 -28 -77 -54 -143 -58 -147
-5 -4 -92 -9 -195 -11 -104 -1 -187 -6 -185 -10 1 -3 65 -54 142 -113 77 -58
144 -110 149 -115 4 -4 -11 -72 -34 -153 l-42 -144 -72 -16 c-96 -22 -192 -37
-243 -37 -24 0 -43 -4 -43 -8 0 -25 275 -203 425 -276 292 -142 566 -210 900
-223 628 -24 1241 226 1673 683 331 349 527 756 597 1239 21 150 14 514 -13
665 -69 380 -220 708 -465 1012 -43 54 -82 100 -87 103 -5 3 15 -45 45 -107z
m-219 -1495 c-2 -3 -24 2 -48 10 l-43 15 40 -1 c37 -2 40 0 45 28 4 28 4 28 8
-9 2 -21 1 -40 -2 -43z m53 36 c-10 -20 -9 -21 12 -15 59 16 70 15 24 -3 -71
-28 -79 -26 -53 9 26 35 34 39 17 9z m262 -131 c-21 -62 -40 -120 -43 -128 -3
-8 -15 18 -27 58 -12 40 -21 77 -19 82 3 7 118 100 124 100 1 0 -14 -51 -35
-112z m-357 22 c-44 -61 -56 -67 -15 -6 17 24 27 46 24 50 -4 3 1 6 10 6 13 0
9 -11 -19 -50z m128 -50 c17 -25 26 -40 21 -35 -23 22 -103 125 -103 132 1 10
38 -35 82 -97z m-806 -1047 c-2 -3 -31 4 -63 16 -32 12 -44 18 -28 14 68 -14
80 -11 85 27 4 35 4 35 8 -9 2 -23 1 -45 -2 -48z m-1436 37 c-10 -19 -9 -20
17 -14 15 4 38 11 51 15 13 5 29 9 35 8 13 -1 -71 -32 -116 -43 l-28 -7 22 31
c26 35 35 39 19 10z m1490 5 c-18 -21 -8 -27 24 -15 15 5 33 10 39 9 11 0 -28
-17 -82 -34 l-24 -7 22 31 c12 17 25 31 28 31 3 0 0 -7 -7 -15z m120 5 c-8 -5
-22 -9 -30 -9 -10 0 -8 3 5 9 27 12 43 12 25 0z m-1783 -6 c-3 -3 -12 -4 -19
-1 -8 3 -5 6 6 6 11 1 17 -2 13 -5z m120 -40 c-2 -2 -21 3 -43 11 -36 14 -37
15 -6 9 25 -4 34 -2 39 13 7 16 8 15 11 -5 2 -13 2 -26 -1 -28z m-42 -74 c-20
-27 -39 -50 -42 -50 -3 0 6 15 20 34 15 18 28 40 29 47 3 15 20 30 26 24 3 -2
-12 -27 -33 -55z m1510 33 c-9 -16 -30 -44 -47 -63 -24 -28 -23 -25 7 18 20
28 33 52 28 52 -7 0 17 19 25 20 2 0 -4 -12 -13 -27z m-1406 -45 c23 -32 39
-58 37 -58 -8 0 -86 105 -86 115 0 10 -3 14 49 -57z m1506 -28 c21 -30 34 -50
28 -45 -21 20 -103 125 -103 132 0 12 33 -27 75 -87z m-1417 -219 c50 -36 90
-67 87 -69 -10 -10 -318 49 -352 67 -7 4 14 25 55 53 77 53 52 60 210 -51z
m-438 -71 c-6 -11 -13 -20 -16 -20 -2 0 0 9 6 20 6 11 13 20 16 20 2 0 0 -9
-6 -20z"/>
<path d="M18760 11268 c0 -3 22 -52 49 -109 82 -171 133 -331 173 -535 20
-105 22 -150 23 -379 0 -207 -4 -280 -18 -355 -88 -477 -279 -844 -611 -1176
-328 -327 -698 -519 -1171 -606 -103 -19 -154 -23 -360 -22 -255 0 -336 9
-533 60 l-94 24 -81 -29 c-102 -36 -214 -59 -325 -68 l-86 -6 40 -34 c68 -57
230 -162 347 -223 705 -370 1577 -325 2237 116 546 365 889 912 982 1569 16
116 16 444 -1 560 -57 399 -200 744 -438 1055 -79 104 -133 168 -133 158z"/>
<path d="M17072 11070 c-5 -14 -26 -72 -47 -130 -21 -58 -46 -129 -57 -157
l-19 -53 -117 -1 c-64 -1 -150 -4 -190 -8 l-72 -6 150 -115 c101 -78 148 -120
145 -130 -13 -43 -76 -278 -80 -298 -2 -13 -9 -30 -16 -38 -24 -29 7 -11 157
92 95 65 159 102 167 98 6 -5 76 -53 155 -107 79 -55 144 -98 146 -96 2 2 -20
85 -49 184 -30 99 -50 183 -47 186 4 3 72 55 151 115 169 129 174 121 -75 123
l-161 1 -21 58 c-109 305 -110 308 -120 282z m1 -500 c-4 -5 -33 0 -63 11 -50
17 -41 18 18 3 13 -4 22 -2 22 6 0 6 5 8 10 5 6 -3 11 6 12 22 1 25 2 24 5 -6
3 -18 1 -37 -4 -41z m51 25 c-4 -8 -4 -15 -1 -15 2 0 24 7 47 15 23 8 48 15
54 14 6 0 -20 -11 -58 -25 -38 -13 -71 -22 -73 -21 -3 4 26 47 32 47 3 0 2 -7
-1 -15z m-84 -90 c-17 -25 -33 -45 -36 -45 -3 0 4 13 15 29 12 16 21 34 21 39
0 9 11 17 28 21 2 1 -11 -19 -28 -44z m122 -65 c17 -25 26 -40 21 -35 -23 22
-103 125 -103 132 1 10 38 -35 82 -97z"/>
<path d="M9480 11067 c0 -8 -11 -19 -25 -25 -14 -6 -25 -17 -25 -24 0 -7 -6
-25 -14 -39 -13 -25 -12 -27 19 -37 27 -8 32 -7 28 4 -4 10 0 12 11 8 14 -5
16 3 16 60 0 36 -2 66 -5 66 -3 0 -5 -6 -5 -13z"/>
<path d="M2275 10514 c-9 -22 -36 -93 -60 -159 -24 -66 -47 -128 -50 -137 -6
-15 -22 -18 -109 -19 -55 -1 -141 -4 -190 -8 l-89 -6 143 -110 c79 -60 147
-112 151 -115 4 -3 -10 -68 -31 -145 -22 -77 -41 -149 -43 -160 -2 -11 -9 -31
-16 -44 -19 -35 -8 -29 161 89 l148 101 146 -101 c155 -108 177 -121 170 -99
-35 101 -104 354 -99 359 5 4 73 56 152 116 l144 109 -69 6 c-38 4 -124 7
-190 8 -106 1 -123 3 -129 19 -3 9 -31 87 -62 172 -30 85 -56 157 -58 159 -2
2 -11 -14 -20 -35z m58 -451 c-5 -13 -2 -15 11 -10 10 4 30 9 44 12 15 3 3 -4
-27 -15 -30 -11 -56 -19 -57 -17 -4 4 25 47 31 47 3 0 1 -8 -2 -17z m-80 -6
c17 0 27 -5 27 -14 0 -15 -12 -13 -80 14 -30 11 -31 12 -5 6 17 -4 42 -7 58
-6z m-3 -82 c-17 -25 -33 -45 -36 -45 -3 0 4 13 15 29 12 16 21 34 21 39 0 9
11 17 28 21 2 1 -11 -19 -28 -44z m104 -42 c21 -29 36 -53 33 -53 -6 0 -97
119 -97 127 0 10 21 -14 64 -74z"/>
<path d="M4590 10349 l-65 -179 -56 0 c-31 0 -117 -3 -192 -7 l-136 -6 142
-109 c78 -60 146 -115 150 -121 5 -7 -9 -72 -32 -156 -23 -79 -39 -146 -36
-149 2 -2 -2 -17 -10 -33 -8 -15 -15 -30 -15 -33 0 -3 66 41 148 97 185 130
170 122 190 104 26 -23 295 -207 298 -204 2 1 -22 83 -52 182 -29 99 -54 182
-54 185 0 3 68 56 150 119 83 63 148 117 145 120 -4 3 -90 8 -192 11 l-186 5
-61 172 c-33 94 -63 174 -66 176 -3 3 -34 -75 -70 -174z m113 -306 c-17 -26
-17 -26 7 -20 61 16 70 15 20 -2 -30 -10 -57 -17 -59 -15 -4 3 38 64 45 64 2
0 -3 -12 -13 -27z m-146 -9 c-3 -3 -12 -4 -19 -1 -8 3 -5 6 6 6 11 1 17 -2 13
-5z m93 -20 c0 -11 -7 -13 -27 -8 -44 10 -63 25 -24 17 24 -4 32 -3 27 5 -5 8
-2 10 8 6 9 -3 16 -12 16 -20z m-40 -79 c-17 -25 -33 -45 -36 -45 -3 0 6 17
20 37 14 20 23 40 20 45 -3 4 2 8 11 8 12 0 9 -10 -15 -45z m114 -37 c16 -21
26 -38 23 -38 -7 0 -87 105 -87 115 0 8 8 -2 64 -77z"/>
<path d="M3444 10207 c-6 -18 -35 -98 -64 -179 l-53 -148 -126 -1 c-69 -1
-155 -4 -190 -8 l-64 -6 150 -115 c83 -63 149 -119 147 -125 -2 -5 -24 -83
-48 -173 -25 -89 -48 -167 -51 -172 -13 -20 9 -8 148 88 78 54 148 102 155
106 7 4 68 -31 158 -94 173 -120 177 -122 164 -84 -48 149 -100 338 -93 345 4
4 71 56 148 114 77 59 141 110 143 115 2 4 -82 8 -185 9 -103 1 -191 5 -194 9
-3 4 -16 36 -28 72 -55 157 -94 266 -100 272 -4 4 -11 -7 -17 -25z m101 -472
c-38 -12 -72 -20 -74 -18 -3 2 3 11 14 21 10 9 15 11 11 4 -8 -13 23 -9 69 9
11 4 27 8 35 7 8 0 -16 -10 -55 -23z m-122 2 c16 0 27 -5 27 -13 0 -10 -11
-10 -52 3 -56 16 -84 32 -33 18 17 -5 42 -9 58 -8z m-13 -91 c-42 -61 -47 -59
-8 4 17 28 33 48 36 46 2 -3 -10 -25 -28 -50z m120 -43 c17 -24 29 -43 27 -43
-7 0 -97 118 -97 127 0 8 19 -14 70 -84z"/>
<path d="M10198 10142 c-9 -26 -37 -107 -63 -179 l-48 -133 -76 -1 c-42 -1
-129 -4 -193 -8 l-118 -6 151 -114 c135 -103 150 -117 146 -140 -5 -32 -82
-309 -92 -334 -4 -9 65 33 153 93 l160 110 152 -106 c83 -58 153 -104 156
-101 3 3 -18 85 -47 183 -44 152 -50 179 -37 188 8 6 76 58 152 116 l137 105
-188 8 c-103 5 -191 12 -195 15 -8 8 -118 317 -118 331 0 28 -17 13 -32 -27z
m67 -438 c-17 -26 -17 -27 6 -20 62 16 69 15 20 -4 -30 -11 -56 -18 -59 -16
-4 5 39 66 46 66 2 0 -3 -12 -13 -26z m-115 -19 c36 -13 41 -13 37 0 -4 9 -1
12 9 8 17 -6 19 -33 2 -32 -19 1 -115 37 -102 38 6 1 31 -6 54 -14z m41 -62
c-6 -10 -22 -31 -36 -48 l-26 -30 25 39 c14 22 23 43 20 48 -3 4 2 8 11 8 12
0 13 -4 6 -17z m92 -68 c27 -37 27 -38 2 -10 -52 57 -65 75 -65 87 0 7 8 1 17
-12 9 -14 30 -43 46 -65z"/>
<path d="M8717 10158 c-6 -27 -114 -318 -119 -323 -1 -1 -88 -7 -193 -11
l-190 -9 130 -99 c72 -55 140 -108 151 -118 l21 -19 -38 -137 c-21 -75 -40
-149 -43 -165 -2 -15 -10 -35 -17 -43 -19 -23 -5 -26 22 -6 13 11 84 60 156
110 l133 92 157 -109 c87 -60 159 -109 160 -107 1 1 -23 84 -53 185 -30 101
-53 185 -52 186 2 1 70 53 152 116 l149 114 -189 8 c-104 5 -192 12 -195 15
-3 4 -32 82 -64 175 -32 92 -61 167 -65 167 -4 0 -10 -10 -13 -22z m57 -463
c-7 -18 -9 -18 55 1 29 8 55 14 57 11 2 -2 -28 -14 -68 -25 -39 -12 -73 -21
-74 -19 -4 4 25 47 31 47 3 0 2 -7 -1 -15z m-100 -12 c21 -4 27 -3 22 5 -5 8
-2 10 8 6 19 -7 21 -34 4 -33 -7 0 -35 9 -63 20 -27 11 -39 17 -25 14 14 -3
38 -8 54 -12z m36 -50 c0 -5 -14 -24 -31 -43 -30 -34 -30 -34 -10 -3 12 17 21
36 21 42 0 6 5 11 10 11 6 0 10 -3 10 -7z m60 -40 l33 -48 -37 38 c-31 33 -45
57 -33 57 2 0 18 -21 37 -47z m51 -70 c13 -16 12 -17 -3 -4 -10 7 -18 15 -18
17 0 8 8 3 21 -13z"/>
<path d="M16347 9718 c-3 -13 -30 -90 -60 -173 l-55 -150 -193 -10 -192 -10
149 -114 c82 -63 150 -115 151 -116 1 0 -16 -66 -38 -145 -21 -79 -38 -149
-36 -155 2 -5 -5 -23 -16 -38 -10 -16 -18 -30 -16 -32 2 -2 75 46 162 106
l158 109 157 -109 c86 -60 158 -108 159 -107 2 1 -21 83 -51 182 -29 98 -52
182 -49 187 2 4 71 58 151 120 l147 112 -192 9 -192 8 -44 122 c-24 66 -52
145 -61 174 -19 56 -30 65 -39 30z m56 -464 c-4 -12 0 -14 23 -8 16 4 39 11
52 15 13 5 29 9 35 8 13 -1 -71 -32 -116 -43 -28 -7 -28 -7 -11 19 18 28 26
33 17 9z m-128 -4 c13 -5 14 -9 5 -9 -8 0 -24 4 -35 9 -13 5 -14 9 -5 9 8 0
24 -4 35 -9z m75 -15 c0 -16 -9 -19 -36 -8 -16 6 -16 7 2 14 29 11 34 10 34
-6z m-10 -40 c0 -7 -71 -105 -76 -105 -3 0 9 20 26 44 16 25 30 49 30 55 0 6
5 11 10 11 6 0 10 -2 10 -5z m90 -82 c17 -24 29 -43 27 -43 -7 0 -97 118 -97
127 0 8 19 -14 70 -84z"/>
<path d="M17830 9728 c0 -7 -28 -88 -62 -180 l-61 -168 -116 -1 c-64 -1 -149
-4 -190 -8 l-74 -6 142 -108 c78 -60 145 -115 148 -123 3 -8 -11 -74 -32 -147
-20 -73 -38 -141 -39 -152 -1 -11 -8 -31 -15 -43 -7 -13 -11 -25 -9 -27 2 -1
74 46 160 107 l158 109 157 -110 c87 -60 159 -108 161 -106 2 1 -22 85 -52
186 -30 101 -51 186 -47 189 65 45 291 225 291 231 0 5 -85 9 -189 9 l-189 0
-41 117 c-23 64 -52 145 -64 180 -20 58 -37 81 -37 51z m60 -467 c-16 -30 -13
-31 38 -16 26 8 52 15 57 14 13 0 -22 -14 -85 -33 l-52 -16 14 23 c8 12 18 28
22 35 12 20 18 14 6 -7z m-87 -24 c17 0 27 -5 27 -14 0 -15 -12 -13 -80 14
-30 11 -31 12 -5 6 17 -4 42 -7 58 -6z m7 -67 c-12 -16 -23 -30 -26 -30 -6 0
19 44 31 52 18 13 17 9 -5 -22z m94 -57 c21 -29 36 -53 33 -53 -6 0 -97 119
-97 127 0 10 21 -14 64 -74z m-144 -13 c-12 -16 -24 -30 -26 -30 -3 0 4 14 16
30 12 17 24 30 26 30 3 0 -4 -13 -16 -30z"/>
<path d="M2722 9113 c-16 -43 -44 -121 -63 -174 l-34 -97 -90 -6 c-49 -3 -136
-7 -192 -7 -57 -1 -103 -4 -103 -8 1 -3 56 -48 123 -98 67 -51 134 -103 149
-115 l28 -23 -40 -138 c-22 -76 -40 -147 -40 -158 0 -11 -7 -31 -16 -45 -9
-13 -15 -26 -13 -28 2 -2 74 46 159 105 85 60 158 109 163 109 4 0 75 -48 158
-106 83 -58 153 -103 156 -100 3 3 -18 82 -46 175 -28 94 -51 176 -51 183 1 7
66 62 145 123 80 60 145 112 145 116 0 4 -83 8 -184 10 -102 2 -187 7 -191 10
-3 4 -33 82 -66 175 -33 92 -61 170 -63 172 -2 2 -17 -32 -34 -75z m24 -440
c-3 -4 -20 -1 -38 5 -29 10 -29 11 -5 6 19 -3 26 -1 22 6 -3 5 -1 10 4 10 6 0
12 12 13 28 1 19 3 15 5 -12 3 -21 2 -40 -1 -43z m54 38 c-16 -30 -13 -31 36
-14 25 8 47 13 49 11 3 -2 -25 -14 -61 -25 l-65 -22 14 22 c7 12 17 28 21 35
12 20 18 14 6 -7z m-145 -11 c13 -6 15 -9 5 -9 -8 0 -22 4 -30 9 -18 12 -2 12
25 0z m65 -80 c-27 -39 -34 -39 -12 0 9 16 21 30 25 30 5 0 -1 -13 -13 -30z
m89 -45 c39 -55 29 -47 -35 29 -13 15 -24 33 -24 39 0 14 8 6 59 -68z m-135
-20 c-9 -14 -18 -25 -21 -25 -5 0 5 18 20 38 17 22 18 13 1 -13z"/>
<path d="M1404 9025 c35 -94 55 -139 101 -230 100 -195 228 -373 390 -544 89
-93 90 -93 130 -88 46 7 201 56 276 88 l51 22 -99 47 c-291 138 -579 368 -768
615 -82 107 -91 117 -81 90z"/>
<path d="M8161 9020 c-2 -11 68 -168 117 -265 57 -114 164 -280 242 -375 84
-104 233 -250 253 -250 36 0 204 53 297 92 l45 20 -110 55 c-218 109 -386 227
-554 388 -90 87 -218 235 -273 315 -9 14 -17 23 -17 20z"/>
<path d="M15060 9007 c0 -11 59 -147 100 -227 105 -211 228 -384 405 -569 79
-82 80 -83 120 -77 42 5 221 62 288 91 l39 16 -134 67 c-293 147 -563 370
-745 613 -60 81 -73 96 -73 86z"/>
<path d="M6897 4918 c-3 -13 -30 -90 -60 -173 l-55 -150 -34 -3 c-18 -1 -105
-6 -193 -10 l-160 -7 151 -117 152 -118 -39 -137 c-21 -75 -40 -150 -43 -166
-2 -15 -10 -35 -17 -43 -29 -35 6 -16 154 86 l157 109 157 -109 c86 -60 158
-108 160 -107 1 2 -22 84 -52 182 -29 99 -51 183 -49 187 3 4 71 58 152 120
l147 113 -190 8 c-104 4 -193 11 -196 15 -3 4 -33 82 -65 175 -32 92 -62 167
-65 167 -4 0 -9 -10 -12 -22z m56 -465 c-5 -13 -2 -15 18 -10 60 17 69 15 19
-3 -65 -24 -76 -23 -55 8 19 26 27 29 18 5z m-53 -19 c0 -8 -6 -14 -12 -13
-19 1 -85 27 -71 28 6 1 24 -4 38 -9 23 -9 26 -8 22 4 -4 10 -1 13 9 9 7 -3
14 -11 14 -19z m-10 -39 c0 -7 -71 -105 -76 -105 -3 0 9 20 26 44 16 25 30 49
30 55 0 6 5 11 10 11 6 0 10 -2 10 -5z m84 -80 c16 -22 19 -29 6 -15 -12 14
-33 37 -46 52 -13 15 -24 33 -24 39 0 12 16 -7 64 -76z"/>
<path d="M8562 4785 c299 -600 302 -1310 8 -1912 -116 -238 -262 -437 -453
-619 -101 -97 -307 -257 -317 -247 -7 7 49 53 186 155 62 45 113 86 113 89 1
6 -210 19 -319 19 l-65 0 -49 143 c-27 78 -57 159 -65 180 l-16 38 -49 -133
c-27 -73 -57 -153 -65 -178 l-17 -45 -194 -10 -195 -10 147 -113 c81 -62 149
-116 152 -121 3 -4 -11 -65 -32 -135 l-37 -126 -65 -20 c-173 -51 -351 -78
-544 -82 l-129 -3 -54 175 c-29 96 -53 180 -53 185 1 6 69 62 152 125 l151
115 -119 6 c-65 4 -153 7 -195 8 l-75 1 -59 168 c-32 92 -61 171 -65 175 -4 5
-15 -11 -24 -35 -9 -23 -38 -101 -64 -173 l-48 -130 -194 -10 -195 -10 147
-113 c81 -62 150 -116 152 -121 5 -8 -66 -270 -79 -290 -14 -24 -213 -71 -364
-87 l-65 -6 35 -29 c51 -43 214 -152 294 -196 245 -137 538 -230 827 -264 150
-17 495 -7 633 20 616 116 1133 460 1474 980 173 264 305 633 340 953 16 140
13 398 -4 535 -56 428 -247 846 -534 1169 l-43 49 34 -70z m-2336 -2683 c-3
-3 -33 3 -66 13 -33 10 -58 20 -56 23 3 2 26 -3 52 -12 58 -20 58 -20 50 0 -3
8 -2 12 4 9 6 -3 11 4 12 17 1 14 3 10 5 -10 3 -19 2 -36 -1 -40z m1350 0 c-3
-3 -33 3 -66 13 -33 10 -58 20 -56 23 3 2 26 -3 52 -12 58 -20 58 -20 50 0 -3
8 -2 12 4 9 6 -3 11 4 12 17 1 14 3 10 5 -10 3 -19 2 -36 -1 -40z m-1244 21
c-76 -26 -99 -25 -67 5 10 9 15 11 11 5 -9 -17 18 -16 64 2 19 7 42 13 50 13
8 0 -18 -11 -58 -25z m1350 0 c-76 -26 -99 -25 -67 5 10 9 15 11 11 5 -9 -17
18 -16 64 2 19 7 42 13 50 13 8 0 -18 -11 -58 -25z m-1492 -88 c-17 -25 -33
-45 -36 -45 -3 0 6 17 20 37 14 20 23 40 20 45 -3 4 2 8 11 8 12 0 9 -10 -15
-45z m1350 0 c-17 -25 -33 -45 -36 -45 -3 0 6 17 20 37 14 20 23 40 20 45 -3
4 2 8 11 8 12 0 9 -10 -15 -45z m-1261 -10 c18 -25 30 -45 28 -45 -3 0 -21 20
-41 45 -21 25 -33 45 -28 45 5 0 23 -20 41 -45z m1350 0 c18 -25 30 -45 28
-45 -3 0 -21 20 -41 45 -21 25 -33 45 -28 45 5 0 23 -20 41 -45z m-1298 -72
c13 -16 12 -17 -3 -4 -10 7 -18 15 -18 17 0 8 8 3 21 -13z m1350 0 c13 -16 12
-17 -3 -4 -10 7 -18 15 -18 17 0 8 8 3 21 -13z m-1295 -193 c79 -56 144 -102
144 -103 0 -17 -426 49 -468 72 -9 5 17 28 75 69 48 34 92 62 97 62 4 0 73
-45 152 -100z"/>
<path d="M16054 4590 c355 -754 245 -1648 -281 -2292 -81 -98 -255 -270 -264
-261 -13 14 -89 277 -81 284 4 4 70 55 147 114 77 59 142 111 143 116 3 7
-329 16 -370 10 -7 -1 -24 42 -89 231 -24 71 -47 128 -50 128 -3 0 -33 -78
-68 -174 l-63 -174 -36 -6 c-21 -3 -80 -6 -132 -7 -52 -1 -122 -4 -154 -8
l-60 -6 147 -113 c81 -62 147 -117 147 -123 0 -5 -16 -66 -36 -136 -19 -69
-37 -139 -39 -155 -2 -16 -9 -36 -16 -44 -34 -41 14 -16 143 73 79 55 149 102
155 107 8 4 61 -27 137 -81 l125 -88 -27 -22 c-66 -55 -244 -167 -354 -224
-210 -107 -390 -165 -645 -210 -104 -19 -166 -23 -333 -23 -223 0 -347 14
-532 60 l-102 26 -61 -20 c-121 -42 -313 -82 -394 -82 l-36 -1 35 -29 c68 -58
256 -179 362 -233 320 -164 642 -240 1013 -239 396 1 722 84 1066 273 480 264
855 714 1028 1235 80 237 112 446 112 709 -1 544 -191 1043 -556 1460 -35 40
-35 40 19 -75z m-801 -2157 c-17 -26 -17 -27 0 -20 11 4 31 9 45 12 15 3 5 -3
-23 -14 -27 -10 -52 -17 -54 -15 -4 3 38 64 45 64 2 0 -4 -12 -13 -27z m-133
-8 c24 -8 52 -13 62 -9 12 3 18 0 18 -10 0 -13 -5 -13 -51 0 -64 19 -97 33
-83 33 6 1 31 -6 54 -14z m50 -84 c-29 -42 -34 -39 -8 4 11 20 23 34 25 31 3
-3 -5 -19 -17 -35z m79 -18 l33 -48 -36 40 c-31 35 -43 55 -33 55 2 0 18 -21
36 -47z m52 -70 c13 -16 12 -17 -3 -4 -10 7 -18 15 -18 17 0 8 8 3 21 -13z"/>
<path d="M14880 4252 c-29 -81 -59 -162 -66 -179 l-13 -33 -99 0 c-54 0 -140
-3 -190 -6 l-91 -7 142 -109 c78 -60 146 -113 150 -117 5 -5 -8 -68 -28 -140
-20 -73 -38 -145 -40 -162 -2 -17 -9 -37 -16 -45 -31 -38 10 -16 150 81 84 58
154 105 156 105 2 0 72 -47 155 -106 84 -58 155 -103 157 -100 3 3 -18 81 -46
173 -28 93 -51 174 -51 180 0 7 66 62 146 123 80 62 142 115 139 119 -4 3 -88
8 -188 11 l-182 5 -62 174 c-34 95 -64 175 -66 177 -1 2 -27 -63 -57 -144z
m47 -378 c-2 -2 -21 2 -43 10 l-39 15 35 -2 c30 -2 36 1 40 23 4 22 5 21 8 -8
2 -19 2 -36 -1 -38z m53 41 c-18 -21 -8 -27 24 -15 15 5 33 10 39 9 11 0 -28
-17 -82 -34 l-24 -7 22 31 c12 17 25 31 28 31 3 0 0 -7 -7 -15z m-85 -99 c-33
-44 -45 -48 -15 -6 12 17 18 30 13 30 -4 0 -1 4 7 10 25 16 23 3 -5 -34z m92
-27 c55 -77 47 -76 -12 1 -25 33 -43 60 -38 59 4 0 27 -27 50 -60z"/>
<path d="M13570 4276 l0 -76 -24 15 c-24 16 -24 16 -45 -39 -12 -31 -30 -80
-41 -110 l-20 -53 -153 -9 c-83 -4 -169 -8 -191 -7 -21 1 -34 -2 -30 -7 7 -5
282 -218 291 -224 1 -1 -16 -63 -37 -139 -22 -76 -41 -148 -43 -160 -1 -12 -8
-32 -15 -44 -7 -13 -10 -23 -6 -23 3 0 50 30 103 67 53 36 122 84 153 106 l57
39 146 -102 c174 -120 178 -122 165 -84 -5 16 -30 99 -55 184 -38 128 -43 156
-32 165 117 87 285 220 281 224 -2 3 -88 7 -190 10 l-186 6 -59 164 c-33 91
-61 167 -64 169 -3 3 -5 -29 -5 -72z m-413 -292 c-3 -3 -12 -4 -19 -1 -8 3 -5
6 6 6 11 1 17 -2 13 -5z m459 -99 c-17 -26 -17 -26 11 -19 15 4 38 11 51 15
13 5 29 9 35 8 7 -1 -19 -11 -58 -24 -38 -13 -72 -22 -73 -20 -4 4 40 65 46
65 2 0 -3 -11 -12 -25z m-83 -18 c17 0 27 -5 27 -14 0 -15 -12 -13 -80 14 -30
11 -31 12 -5 6 17 -4 42 -7 58 -6z m-9 -89 c-20 -29 -44 -60 -52 -68 -9 -8 0
8 19 35 19 28 38 58 42 68 3 9 11 17 18 17 6 0 -6 -24 -27 -52z m116 -45 c17
-24 29 -43 27 -43 -6 0 -97 119 -97 128 0 7 21 -17 70 -85z"/>
<path d="M5737 3978 c-7 -27 -114 -318 -119 -323 -2 -2 -88 -7 -191 -11 -103
-4 -187 -10 -186 -13 0 -3 67 -56 148 -118 l149 -112 -39 -138 c-21 -75 -40
-150 -43 -166 -2 -15 -10 -35 -17 -43 -29 -35 6 -16 153 86 l158 109 157 -110
c86 -60 157 -108 159 -106 1 1 -22 83 -51 182 -30 98 -52 183 -49 187 3 4 71
58 152 120 l147 113 -185 7 c-102 4 -189 10 -195 12 -5 2 -37 81 -70 175 -33
94 -63 171 -66 171 -4 0 -9 -10 -12 -22z m56 -465 c-5 -13 -2 -15 18 -10 60
17 69 15 19 -3 -65 -24 -76 -23 -55 8 19 26 27 29 18 5z m-53 -19 c0 -8 -6
-14 -12 -13 -19 1 -85 27 -71 28 6 1 24 -4 38 -9 23 -9 26 -8 22 4 -4 10 -1
13 9 9 7 -3 14 -11 14 -19z m-10 -41 c0 -5 -14 -24 -31 -43 -30 -34 -30 -34
-10 -3 12 17 21 36 21 42 0 6 5 11 10 11 6 0 10 -3 10 -7z m84 -78 l28 -40
-27 30 c-50 56 -65 75 -65 86 0 12 16 -7 64 -76z"/>
<path d="M8136 3918 c-9 -24 -38 -104 -64 -178 l-48 -135 -188 -7 c-104 -4
-190 -8 -192 -10 -1 -2 56 -48 128 -103 72 -55 140 -107 150 -115 20 -16 19
-18 -22 -163 -23 -82 -40 -151 -36 -154 3 -3 -4 -19 -16 -36 -31 -44 -15 -35
157 82 81 55 153 98 159 94 6 -4 77 -53 159 -109 81 -57 147 -98 147 -92 0 6
-23 87 -51 181 -27 93 -48 175 -46 181 3 6 70 61 150 121 81 61 146 113 147
117 0 4 -87 9 -192 10 l-193 3 -62 174 c-34 95 -64 175 -67 178 -2 2 -11 -15
-20 -39z m11 -484 c-2 -2 -21 2 -43 10 l-39 15 35 -2 c32 -2 35 1 40 28 4 28
4 28 8 -9 2 -21 2 -40 -1 -42z m53 41 c-18 -21 -8 -27 24 -15 15 5 33 10 39 9
11 0 -28 -17 -82 -34 l-24 -7 22 31 c12 17 25 31 28 31 3 0 0 -7 -7 -15z m-75
-82 c-9 -16 -30 -44 -47 -63 -24 -28 -23 -25 7 18 20 28 33 52 28 52 -7 0 17
19 25 20 2 0 -4 -12 -13 -27z m78 -41 c21 -31 29 -46 17 -32 -12 14 -33 37
-46 52 -25 29 -29 38 -16 38 4 -1 24 -26 45 -58z m58 -79 c13 -16 12 -17 -3
-4 -10 7 -18 15 -18 17 0 8 8 3 21 -13z"/>
<path d="M13827 2850 c-10 -25 -39 -106 -66 -180 l-49 -135 -178 -7 c-99 -4
-185 -5 -192 -3 -33 12 3 -21 133 -120 77 -58 143 -110 148 -114 4 -4 -11 -71
-34 -149 -22 -79 -39 -148 -36 -155 2 -6 -5 -25 -16 -41 -31 -44 -10 -33 159
84 93 64 149 98 157 93 7 -4 77 -52 156 -107 78 -54 145 -96 147 -93 3 3 -17
79 -44 169 -28 89 -52 170 -54 179 -2 12 44 52 145 129 141 108 162 128 135
127 -7 0 -92 1 -189 1 l-175 2 -54 153 c-29 83 -59 165 -65 182 l-11 30 -17
-45z m10 -486 c-2 -2 -21 2 -43 10 l-39 15 35 -2 c33 -2 35 0 40 33 4 35 4 35
8 -9 2 -23 1 -45 -1 -47z m47 31 c-5 -13 0 -13 42 0 53 16 82 19 47 5 -58 -24
-123 -39 -117 -27 19 33 38 48 28 22z m-63 -62 c-6 -10 -22 -31 -37 -48 l-26
-30 26 38 c15 20 23 37 19 37 -4 0 -1 5 7 10 21 13 22 13 11 -7z m74 -56 c22
-32 26 -40 10 -22 -47 53 -65 75 -65 81 0 12 20 -9 55 -59z"/>
<path d="M4834 2585 c4 -11 17 -44 28 -73 64 -170 225 -436 358 -592 87 -102
179 -198 201 -210 10 -6 45 -1 94 11 89 23 265 88 264 98 0 3 -57 34 -127 68
-285 138 -556 361 -750 618 -42 55 -72 91 -68 80z"/>
<path d="M12300 2446 c0 -2 20 -53 45 -113 107 -255 268 -493 484 -716 62 -64
68 -68 101 -62 47 9 269 82 300 99 23 14 21 15 -80 64 -295 143 -581 375 -773
630 -42 57 -77 101 -77 98z"/>
</g>
</svg>
